<svg width="329" height="75" viewBox="0 0 329 75" fill="none" xmlns="http://www.w3.org/2000/svg">
<path d="M0.632 75V0.269995H35.082C43.2793 0.269995 49.604 2.00133 54.056 5.464C58.508 8.92666 60.734 13.6613 60.734 19.668C60.734 24.12 59.3913 27.9007 56.706 31.01C54.0913 34.1193 50.4873 36.204 45.894 37.264V35.568C51.2647 36.4867 55.3987 38.536 58.296 41.716C61.264 44.8253 62.748 48.8887 62.748 53.906C62.748 60.5487 60.3807 65.7427 55.646 69.488C50.982 73.1627 44.516 75 36.248 75H0.632ZM16.426 62.704H34.234C38.3327 62.704 41.4773 61.9267 43.668 60.372C45.8587 58.8173 46.954 56.344 46.954 52.952C46.954 49.4893 45.8587 47.016 43.668 45.532C41.4773 43.9773 38.3327 43.2 34.234 43.2H16.426V62.704ZM16.426 31.01H32.114C36.4247 31.01 39.6047 30.2327 41.654 28.678C43.7033 27.1233 44.728 24.7913 44.728 21.682C44.728 18.6433 43.7033 16.3467 41.654 14.792C39.6047 13.2373 36.4247 12.46 32.114 12.46H16.426V31.01ZM74.4386 75V0.269995H90.9746V75H74.4386ZM106.22 75V0.269995H120.742L146.712 58.57H143.32L169.29 0.269995H183.706V75H168.654V24.226H172.894L149.68 75H140.14L116.82 24.226H121.272V75H106.22ZM199.071 75V0.269995H251.011V13.096H214.865V30.586H248.467V43.518H214.865V62.174H251.011V75H199.071ZM252.676 75L283.946 33.448V40.762L253.524 0.269995H272.922L293.274 28.784H287.974L308.432 0.269995H327.83L297.302 40.762V33.448L328.784 75H309.28L287.974 45.426H293.38L271.968 75H252.676Z" fill="#20242C"/>
</svg>
