<svg width="1900" height="980" viewBox="0 0 1900 980" fill="none" xmlns="http://www.w3.org/2000/svg">
<path d="M838.719 530.8H857.281C857.471 530.8 857.625 530.644 857.625 530.45V521.35C857.625 521.157 857.471 521 857.281 521H838.719C838.529 521 838.375 521.157 838.375 521.35V530.45C838.375 530.644 838.529 530.8 838.719 530.8ZM854.531 523.1C854.531 522.907 854.685 522.75 854.875 522.75C855.065 522.75 855.219 522.907 855.219 523.1V528.7C855.219 528.893 855.065 529.05 854.875 529.05C854.685 529.05 854.531 528.893 854.531 528.7V523.1ZM853.156 523.1C853.156 522.907 853.31 522.75 853.5 522.75C853.69 522.75 853.844 522.907 853.844 523.1V528.7C853.844 528.893 853.69 529.05 853.5 529.05C853.31 529.05 853.156 528.893 853.156 528.7V523.1ZM851.781 523.1C851.781 522.907 851.935 522.75 852.125 522.75C852.315 522.75 852.469 522.907 852.469 523.1V528.7C852.469 528.893 852.315 529.05 852.125 529.05C851.935 529.05 851.781 528.893 851.781 528.7V523.1ZM850.406 523.1C850.406 522.907 850.56 522.75 850.75 522.75C850.94 522.75 851.094 522.907 851.094 523.1V528.7C851.094 528.893 850.94 529.05 850.75 529.05C850.56 529.05 850.406 528.893 850.406 528.7V523.1ZM849.031 523.1C849.031 522.907 849.185 522.75 849.375 522.75C849.565 522.75 849.719 522.907 849.719 523.1V528.7C849.719 528.893 849.565 529.05 849.375 529.05C849.185 529.05 849.031 528.893 849.031 528.7V523.1ZM847.656 523.1C847.656 522.907 847.81 522.75 848 522.75C848.19 522.75 848.344 522.907 848.344 523.1V528.7C848.344 528.893 848.19 529.05 848 529.05C847.81 529.05 847.656 528.893 847.656 528.7V523.1ZM846.281 523.1C846.281 522.907 846.435 522.75 846.625 522.75C846.815 522.75 846.969 522.907 846.969 523.1V528.7C846.969 528.893 846.815 529.05 846.625 529.05C846.435 529.05 846.281 528.893 846.281 528.7V523.1ZM844.906 523.1C844.906 522.907 845.06 522.75 845.25 522.75C845.44 522.75 845.594 522.907 845.594 523.1V528.7C845.594 528.893 845.44 529.05 845.25 529.05C845.06 529.05 844.906 528.893 844.906 528.7V523.1ZM843.531 523.1C843.531 522.907 843.685 522.75 843.875 522.75C844.065 522.75 844.219 522.907 844.219 523.1V528.7C844.219 528.893 844.065 529.05 843.875 529.05C843.685 529.05 843.531 528.893 843.531 528.7V523.1ZM842.156 523.1C842.156 522.907 842.31 522.75 842.5 522.75C842.69 522.75 842.844 522.907 842.844 523.1V528.7C842.844 528.893 842.69 529.05 842.5 529.05C842.31 529.05 842.156 528.893 842.156 528.7V523.1ZM840.781 523.1C840.781 522.907 840.935 522.75 841.125 522.75C841.315 522.75 841.469 522.907 841.469 523.1V528.7C841.469 528.893 841.315 529.05 841.125 529.05C840.935 529.05 840.781 528.893 840.781 528.7V523.1Z" fill="white"/>
<path d="M858.656 531.5H837.344C837.154 531.5 837 531.657 837 531.85V532.55C837 532.744 837.154 532.9 837.344 532.9H858.656C858.846 532.9 859 532.744 859 532.55V531.85C859 531.657 858.846 531.5 858.656 531.5Z" fill="white"/>
<path d="M840.781 533.95C840.781 535.35 838.719 535.35 838.719 533.95C838.719 532.55 840.781 532.55 840.781 533.95Z" fill="white"/>
<path d="M842.844 533.95C842.844 535.35 840.781 535.35 840.781 533.95C840.781 532.55 842.844 532.55 842.844 533.95Z" fill="white"/>
<path d="M855.219 533.95C855.219 535.35 853.156 535.35 853.156 533.95C853.156 532.55 855.219 532.55 855.219 533.95Z" fill="white"/>
<path d="M857.281 533.95C857.281 535.35 855.219 535.35 855.219 533.95C855.219 532.55 857.281 532.55 857.281 533.95Z" fill="white"/>
<path d="M844.599 534.457C844.657 534.576 844.776 534.65 844.907 534.65H851.094C851.225 534.65 851.343 534.575 851.402 534.457L851.822 533.6H844.179L844.599 534.457Z" fill="white"/>
<path d="M1104 446C1124.33 433.5 1169.8 413.6 1189 434C1213 459.5 1248 476 1274.5 452C1301 428 1307 369.5 1367 369.5C1449.98 369.5 1415.5 458 1393.5 467.5C1371.5 477 1354 512.5 1393.5 581.5" stroke="white" stroke-dasharray="10 10"/>
<path d="M721 701.5C771.667 715.5 909.8 702.7 967 635.5" stroke="white" stroke-dasharray="10 10"/>
<path d="M721.045 701.501C747.891 709.211 795.329 716.237 840.354 709.384" stroke="#FFC940" stroke-dasharray="10 10"/>
<path d="M1096.5 385.5C1016.83 283 807.9 143.3 609.5 404.5" stroke="white" stroke-opacity="0.5"/>
<path d="M1096.5 385.5C1049.18 324.614 956.244 250.603 847 255.288" stroke="#FFB700"/>
<path d="M1189.15 444.429C1189.15 444.429 1096.07 483 1028 483C937 483 862 527 862 527" stroke="white"/>
<path d="M901 331.5C884.667 327.333 841.9 330.9 801.5 378.5C751 438 806.5 497 606 478" stroke="white" stroke-dasharray="10 10"/>
<g clip-path="url(#clip0_198_573)">
<path d="M1099.38 401.662L1100.51 402.796C1100.71 402.996 1101.05 403.019 1101.27 402.798C1101.47 402.6 1101.49 402.267 1101.27 402.045L1100.64 401.423C1100.55 401.334 1100.53 401.223 1100.55 401.112C1100.58 401.002 1100.66 400.914 1100.75 400.869L1102.28 400.231C1102.41 400.187 1102.52 400.209 1102.63 400.32L1103.77 401.454C1103.97 401.654 1104.3 401.677 1104.52 401.456C1104.72 401.258 1104.74 400.925 1104.52 400.703L1103.9 400.081C1103.81 399.992 1103.79 399.881 1103.81 399.77C1103.83 399.66 1103.92 399.572 1104.01 399.527L1106.55 398.492C1106.6 398.492 1106.62 398.47 1106.66 398.47C1106.66 398.47 1106.71 398.47 1106.73 398.492C1106.75 398.514 1106.77 398.492 1106.8 398.513C1106.84 398.514 1106.88 398.558 1106.91 398.579L1109.6 401.27C1110.2 401.87 1111.26 402.317 1112.19 402.408C1112.52 402.431 1112.88 402.299 1113.12 402.056C1113.36 401.813 1113.5 401.459 1113.47 401.127C1113.4 400.173 1112.94 399.131 1112.34 398.531L1109.65 395.841C1109.62 395.819 1109.58 395.774 1109.58 395.73C1109.56 395.708 1109.58 395.685 1109.56 395.664C1109.54 395.641 1109.56 395.619 1109.54 395.597C1109.54 395.552 1109.54 395.509 1109.56 395.486L1110.59 392.941C1110.64 392.852 1110.73 392.764 1110.84 392.742C1110.95 392.72 1111.06 392.743 1111.15 392.831L1111.77 393.454C1111.97 393.654 1112.3 393.677 1112.52 393.456C1112.72 393.258 1112.74 392.925 1112.52 392.703L1111.39 391.569C1111.3 391.481 1111.28 391.325 1111.3 391.214L1111.94 389.687C1111.98 389.598 1112.07 389.51 1112.18 389.489C1112.29 389.467 1112.4 389.489 1112.49 389.578L1113.11 390.2C1113.31 390.4 1113.64 390.424 1113.86 390.203C1113.95 390.115 1114.02 389.96 1114.02 389.826C1113.93 389.781 1113.86 389.626 1113.77 389.538L1112.64 388.404C1112.55 388.315 1112.53 388.159 1112.55 388.049L1113.76 385.105L1112.58 383.927L1106.93 392.642L1106.91 392.664L1106.89 392.687L1106.87 392.709L1106.82 392.753C1106.8 392.776 1106.8 392.776 1106.76 392.775C1106.73 392.797 1106.71 392.775 1106.69 392.796C1106.67 392.819 1106.64 392.796 1106.64 392.796C1106.62 392.774 1106.6 392.796 1106.58 392.774C1106.55 392.752 1106.53 392.774 1106.51 392.753L1106.49 392.73L1106.47 392.707L1106.44 392.685L1105.53 391.773C1104.69 390.929 1103 389.594 1101.11 388.503C1101 388.437 1100.93 388.325 1100.93 388.192L1101.21 385.112L1100.39 384.29L1099.2 387.212C1099.14 387.366 1098.96 387.455 1098.78 387.409C1098.56 387.32 1098.36 387.253 1098.14 387.208C1098.21 387.409 1098.27 387.608 1098.36 387.829C1098.43 387.984 1098.34 388.161 1098.16 388.249L1095.24 389.438L1096.06 390.26L1099.17 389.961C1099.3 389.961 1099.44 390.006 1099.48 390.139C1100.57 392.026 1101.91 393.714 1102.75 394.559L1103.66 395.47L1103.69 395.493L1103.71 395.515L1103.73 395.538C1103.75 395.561 1103.75 395.561 1103.75 395.605C1103.77 395.627 1103.75 395.65 1103.77 395.671L1103.77 395.716C1103.75 395.739 1103.77 395.761 1103.75 395.783C1103.73 395.805 1103.73 395.805 1103.73 395.85L1103.69 395.894L1103.66 395.916L1103.64 395.939L1103.62 395.961L1094.9 401.605L1096.08 402.783L1099.03 401.573C1099.16 401.528 1099.29 401.573 1099.38 401.662L1099.38 401.662Z" fill="#FFB700"/>
</g>
<g clip-path="url(#clip1_198_573)">
<path d="M906.697 318.895L905.714 319.844V320.675H881.99V319.805L880.802 319.014H874V319.844L878.2 323.107L878.835 323.721H909.198L911 320.676V318.895H906.697Z" fill="white"/>
<path d="M896.717 320.364H905.088V316.931H906.553V316.1H904.296V314.279H900.903V315.043H899.129V316.1H895.253V316.931H896.717L896.717 320.364Z" fill="white"/>
<path d="M875.876 317.97H879.424V318.678H875.876V317.97Z" fill="white"/>
<path d="M882.799 317.97H887.535V320.144H882.799V317.97Z" fill="white"/>
<path d="M887.99 317.97H892.727V320.144H887.99V317.97Z" fill="white"/>
<path d="M882.799 315.317H887.535V317.491H882.799V315.317Z" fill="white"/>
<path d="M887.99 315.317H892.727V317.491H887.99V315.317Z" fill="white"/>
</g>
<g clip-path="url(#clip2_198_573)">
<path d="M820.697 696.895L819.714 697.844V698.675H795.99V697.805L794.802 697.014H788V697.844L792.2 701.107L792.835 701.721H823.198L825 698.676V696.895H820.697Z" fill="#FFB700"/>
<path d="M810.717 698.364H819.088V694.931H820.553V694.1H818.296V692.279H814.903V693.043H813.129V694.1H809.253V694.931H810.717L810.717 698.364Z" fill="#FFB700"/>
<path d="M789.876 695.97H793.424V696.678H789.876V695.97Z" fill="#FFB700"/>
<path d="M796.799 695.97H801.535V698.144H796.799V695.97Z" fill="#FFB700"/>
<path d="M801.99 695.97H806.727V698.144H801.99V695.97Z" fill="#FFB700"/>
<path d="M796.799 693.317H801.535V695.491H796.799V693.317Z" fill="#FFB700"/>
<path d="M801.99 693.317H806.727V695.491H801.99V693.317Z" fill="#FFB700"/>
</g>
<circle cx="967" cy="636" r="5" fill="#FFB700"/>
<circle cx="967.5" cy="636.5" r="14" stroke="#FFB700"/>
<path d="M534 717L585.5 689.25L637 661.5" stroke="white"/>
<path d="M677.307 660.966C677.306 661.037 677.319 661.108 677.346 661.174C677.373 661.24 677.413 661.3 677.463 661.351C677.513 661.401 677.573 661.441 677.639 661.468C677.705 661.495 677.775 661.509 677.846 661.508H678.279V661.171C678.276 660.947 678.243 660.725 678.179 660.51C678.171 660.481 678.165 660.452 678.154 660.424H677.846C677.775 660.423 677.704 660.437 677.639 660.464C677.573 660.491 677.513 660.531 677.463 660.581C677.412 660.632 677.373 660.692 677.346 660.758C677.319 660.824 677.306 660.895 677.307 660.966Z" fill="white"/>
<path d="M670.559 658.139H675.033L674.815 657.749L674.255 656.752H670.559V658.139Z" fill="white"/>
<path d="M669.603 653.333H669.198V655.241H671.657C671.616 654.722 671.381 654.238 671.001 653.884C670.62 653.531 670.122 653.334 669.603 653.333Z" fill="white"/>
<path d="M667.56 660.896C667.591 660.908 667.618 660.929 667.636 660.956C667.655 660.984 667.665 661.016 667.665 661.049V662.722H667.855V661.049C667.854 661.016 667.864 660.984 667.883 660.956C667.902 660.929 667.928 660.908 667.959 660.896C668.067 660.857 668.16 660.785 668.226 660.691C668.292 660.597 668.328 660.484 668.328 660.369V653.356C668.328 653.241 668.292 653.128 668.226 653.034C668.16 652.939 668.067 652.867 667.959 652.828C667.928 652.816 667.902 652.795 667.883 652.768C667.864 652.741 667.854 652.709 667.855 652.676V651H667.665V652.677C667.665 652.71 667.655 652.742 667.636 652.77C667.618 652.797 667.591 652.817 667.56 652.829C667.452 652.868 667.359 652.94 667.293 653.035C667.227 653.13 667.192 653.242 667.191 653.358V660.37C667.192 660.485 667.227 660.597 667.293 660.691C667.359 660.786 667.453 660.857 667.56 660.896Z" fill="white"/>
<path d="M656.086 662.44C656.103 662.513 656.115 662.586 656.126 662.662C656.126 662.682 656.135 662.702 656.137 662.723H666.587C666.612 662.725 666.638 662.722 666.662 662.713C666.685 662.705 666.707 662.692 666.726 662.675C666.744 662.658 666.759 662.637 666.769 662.614C666.779 662.591 666.785 662.566 666.785 662.54C666.785 662.515 666.779 662.49 666.769 662.467C666.759 662.444 666.744 662.423 666.726 662.406C666.707 662.389 666.685 662.376 666.662 662.367C666.638 662.359 666.612 662.356 666.587 662.358H656.07C656.078 662.386 656.079 662.414 656.086 662.44Z" fill="white"/>
<path d="M646.385 662.723C646.385 662.681 646.401 662.642 646.407 662.601C646.413 662.559 646.42 662.52 646.429 662.48C646.438 662.44 646.439 662.398 646.451 662.358H643.197C643.172 662.356 643.147 662.359 643.123 662.367C643.099 662.376 643.077 662.389 643.059 662.406C643.04 662.423 643.025 662.444 643.015 662.467C643.005 662.49 643 662.515 643 662.54C643 662.566 643.005 662.591 643.015 662.614C643.025 662.637 643.04 662.658 643.059 662.675C643.077 662.692 643.099 662.705 643.123 662.713C643.147 662.722 643.172 662.725 643.197 662.723H646.385Z" fill="white"/>
<path d="M646.384 663.162C646.384 663.123 646.366 663.084 646.365 663.047H646.023C645.98 663.044 645.936 663.05 645.896 663.065C645.855 663.079 645.818 663.102 645.786 663.132C645.755 663.162 645.73 663.197 645.713 663.237C645.695 663.277 645.687 663.32 645.687 663.363C645.687 663.407 645.695 663.45 645.713 663.49C645.73 663.529 645.755 663.565 645.786 663.595C645.818 663.625 645.855 663.648 645.896 663.662C645.936 663.677 645.98 663.683 646.023 663.68H646.467C646.458 663.648 646.459 663.617 646.451 663.584C646.416 663.446 646.393 663.305 646.384 663.162Z" fill="white"/>
<path d="M651.544 663.162C651.544 663.123 651.526 663.084 651.525 663.047H650.996C650.996 663.056 650.996 663.066 650.996 663.076C650.989 663.26 650.96 663.442 650.91 663.618C650.91 663.639 650.91 663.66 650.899 663.68H651.632C651.623 663.648 651.624 663.617 651.617 663.584C651.579 663.446 651.555 663.305 651.544 663.162Z" fill="white"/>
<path d="M650.976 662.722H651.545C651.545 662.681 651.561 662.642 651.567 662.601C651.574 662.559 651.58 662.52 651.589 662.48C651.598 662.44 651.599 662.398 651.611 662.358H650.909C650.917 662.385 650.918 662.414 650.925 662.44C650.941 662.513 650.954 662.586 650.965 662.662C650.967 662.682 650.974 662.702 650.976 662.722Z" fill="white"/>
<path d="M665.472 651.419H644.714V662.034H646.576C646.585 662.015 646.601 661.999 646.61 661.98C646.687 661.824 646.781 661.678 646.89 661.543C646.92 661.505 646.948 661.468 646.981 661.431C647.11 661.288 647.256 661.162 647.415 661.054C647.435 661.041 647.457 661.032 647.477 661.021C647.628 660.928 647.789 660.854 647.957 660.799L648.076 660.761C648.274 660.704 648.478 660.674 648.684 660.671C648.891 660.673 649.096 660.704 649.295 660.763C649.329 660.772 649.361 660.783 649.394 660.794C649.576 660.853 649.749 660.934 649.91 661.035L649.934 661.047C650.103 661.16 650.258 661.294 650.393 661.447C650.412 661.469 650.43 661.492 650.45 661.516C650.582 661.673 650.692 661.847 650.779 662.034H651.728C651.737 662.015 651.754 661.999 651.763 661.98C651.84 661.824 651.934 661.678 652.043 661.543C652.073 661.505 652.101 661.468 652.133 661.431C652.262 661.288 652.408 661.162 652.568 661.054C652.587 661.041 652.609 661.032 652.63 661.021C652.781 660.928 652.942 660.854 653.11 660.799L653.229 660.761C653.426 660.704 653.631 660.674 653.836 660.671C654.043 660.673 654.249 660.704 654.448 660.763C654.481 660.772 654.514 660.783 654.547 660.794C654.728 660.853 654.902 660.934 655.063 661.035L655.086 661.047C655.256 661.16 655.41 661.294 655.546 661.447C655.565 661.469 655.583 661.492 655.602 661.516C655.734 661.673 655.845 661.847 655.931 662.034H665.472V651.419Z" fill="white"/>
<path d="M672.186 663.162C672.186 663.128 672.171 663.093 672.169 663.058H669.038C669.027 663.058 669.019 663.048 669.008 663.047H668.024H668.015H667.499H667.49H656.156C656.156 663.056 656.156 663.066 656.156 663.076C656.149 663.26 656.12 663.442 656.07 663.618C656.07 663.639 656.07 663.66 656.06 663.68H672.269C672.26 663.648 672.261 663.617 672.253 663.584C672.218 663.446 672.195 663.305 672.186 663.162Z" fill="white"/>
<path d="M678.283 662.723V661.832H677.847C677.733 661.833 677.621 661.811 677.516 661.768C677.411 661.725 677.315 661.661 677.235 661.581C677.155 661.5 677.091 661.404 677.048 661.299C677.005 661.193 676.984 661.08 676.985 660.966C676.985 660.737 677.076 660.517 677.238 660.354C677.399 660.192 677.618 660.101 677.847 660.1H678C677.805 659.701 677.503 659.363 677.128 659.126C676.753 658.888 676.32 658.76 675.877 658.755C675.759 658.756 675.643 658.73 675.537 658.679C675.431 658.629 675.338 658.555 675.264 658.463H670.397C670.355 658.463 670.314 658.446 670.283 658.416C670.253 658.386 670.236 658.344 670.236 658.301V656.59C670.236 656.547 670.253 656.506 670.283 656.476C670.314 656.445 670.355 656.428 670.397 656.428H674.038C673.836 656.163 673.576 655.947 673.278 655.798C672.981 655.648 672.653 655.57 672.32 655.568H669.2V662.723H672.196V662.706C672.211 662.586 672.235 662.467 672.268 662.351L672.295 662.264C672.328 662.162 672.368 662.064 672.415 661.968C672.436 661.925 672.458 661.886 672.481 661.846C672.525 661.767 672.574 661.691 672.627 661.618C672.663 661.568 672.704 661.522 672.744 661.476C672.784 661.429 672.845 661.359 672.9 661.306C672.956 661.253 673.009 661.214 673.065 661.176C673.122 661.139 673.175 661.088 673.234 661.047C673.294 661.005 673.363 660.977 673.423 660.943C673.482 660.909 673.552 660.873 673.62 660.844C673.689 660.816 673.735 660.809 673.792 660.791C673.876 660.762 673.962 660.738 674.05 660.719H674.059C674.199 660.691 674.342 660.677 674.486 660.676C674.74 660.677 674.993 660.721 675.233 660.806C675.268 660.817 675.304 660.825 675.337 660.838C675.423 660.876 675.507 660.919 675.588 660.968C675.633 660.992 675.679 661.013 675.717 661.04C675.79 661.089 675.86 661.142 675.927 661.198C675.969 661.233 676.013 661.266 676.056 661.303C676.121 661.365 676.182 661.431 676.239 661.5C676.27 661.538 676.304 661.575 676.332 661.616C676.392 661.695 676.446 661.779 676.493 661.867C676.511 661.899 676.529 661.931 676.546 661.964C676.597 662.068 676.64 662.175 676.675 662.286L676.693 662.34C676.73 662.467 676.757 662.597 676.772 662.729L678.283 662.723Z" fill="white"/>
<path d="M678.701 663.047H678.474C678.463 663.047 678.455 663.058 678.443 663.058H676.796V663.076C676.788 663.26 676.759 663.442 676.71 663.618C676.71 663.639 676.71 663.66 676.699 663.68H678.704C678.784 663.675 678.859 663.64 678.914 663.581C678.969 663.522 679 663.444 679 663.363C679 663.283 678.969 663.205 678.914 663.146C678.859 663.087 678.784 663.052 678.704 663.047H678.701Z" fill="white"/>
<path d="M676.463 662.896C676.442 662.385 676.224 661.902 675.856 661.549L675.835 661.532C675.752 661.453 675.661 661.381 675.566 661.317H675.558C675.296 661.148 674.998 661.043 674.687 661.011C674.377 660.98 674.064 661.022 673.774 661.136C673.759 661.136 673.744 661.144 673.73 661.15C673.662 661.18 673.596 661.214 673.532 661.252C673.486 661.278 673.436 661.3 673.39 661.33C673.345 661.36 673.299 661.403 673.252 661.439C673.206 661.475 673.144 661.522 673.096 661.569C673.055 661.61 673.017 661.653 672.98 661.698C672.934 661.746 672.891 661.796 672.851 661.849C672.81 661.911 672.772 661.975 672.739 662.042C672.716 662.083 672.69 662.125 672.671 662.171C672.63 662.262 672.597 662.356 672.571 662.453C672.571 662.475 672.557 662.497 672.551 662.519C672.522 662.641 672.504 662.766 672.498 662.892C672.498 662.927 672.487 662.961 672.487 662.996C672.488 663.458 672.647 663.905 672.938 664.262C673.23 664.62 673.635 664.865 674.086 664.956C674.536 665.048 675.004 664.98 675.411 664.765C675.817 664.549 676.137 664.199 676.316 663.773C676.416 663.526 676.469 663.263 676.471 662.996C676.474 662.979 676.474 662.962 676.471 662.945C676.466 662.929 676.463 662.913 676.463 662.896Z" fill="white"/>
<path d="M655.83 662.932V662.897V662.884C655.83 662.67 655.786 662.457 655.701 662.261C655.629 662.084 655.532 661.919 655.413 661.77L655.371 661.716C655.135 661.435 654.826 661.224 654.478 661.109C654.453 661.099 654.428 661.092 654.403 661.085C654.224 661.031 654.038 661.003 653.851 661.001C653.667 661.003 653.484 661.031 653.308 661.084L653.215 661.112C652.88 661.227 652.582 661.429 652.352 661.698C652.326 661.728 652.3 661.758 652.276 661.789C652.168 661.929 652.079 662.083 652.01 662.247C652.001 662.265 651.998 662.287 651.991 662.306C651.915 662.489 651.875 662.684 651.872 662.882C651.872 662.922 651.86 662.959 651.86 663C651.861 663.461 652.02 663.909 652.312 664.266C652.603 664.624 653.008 664.869 653.459 664.96C653.909 665.052 654.377 664.984 654.784 664.768C655.19 664.553 655.51 664.203 655.689 663.777C655.789 663.53 655.842 663.266 655.844 663C655.847 662.979 655.847 662.957 655.844 662.936L655.83 662.932Z" fill="white"/>
<path d="M650.67 662.932V662.897V662.884C650.67 662.67 650.626 662.457 650.541 662.261C650.469 662.084 650.372 661.919 650.253 661.77L650.211 661.716C649.975 661.435 649.666 661.224 649.318 661.109C649.293 661.099 649.268 661.092 649.243 661.085C649.064 661.031 648.878 661.003 648.691 661.001C648.507 661.003 648.324 661.031 648.148 661.084L648.055 661.112C647.72 661.227 647.422 661.429 647.192 661.698C647.166 661.728 647.14 661.758 647.116 661.789C647.008 661.929 646.918 662.083 646.85 662.247C646.841 662.265 646.838 662.287 646.83 662.306C646.755 662.489 646.715 662.684 646.712 662.882C646.712 662.922 646.7 662.959 646.7 663C646.701 663.461 646.86 663.909 647.151 664.266C647.443 664.624 647.848 664.869 648.298 664.96C648.749 665.052 649.217 664.984 649.624 664.768C650.03 664.553 650.35 664.203 650.529 663.777C650.629 663.53 650.682 663.266 650.684 663C650.686 662.979 650.686 662.957 650.684 662.936L650.67 662.932Z" fill="white"/>
<defs>
<clipPath id="clip0_198_573">
<rect width="25" height="22" fill="white" transform="translate(1121.23 394.556) rotate(135)"/>
</clipPath>
<clipPath id="clip1_198_573">
<rect width="37" height="10" fill="white" transform="translate(874 314)"/>
</clipPath>
<clipPath id="clip2_198_573">
<rect width="37" height="10" fill="white" transform="translate(788 692)"/>
</clipPath>
</defs>
</svg>
