<svg width="1900" height="980" viewBox="0 0 1900 980" fill="none" xmlns="http://www.w3.org/2000/svg">
<mask id="mask0_2001_182" style="mask-type:alpha" maskUnits="userSpaceOnUse" x="0" y="0" width="1900" height="980">
<rect width="1900" height="980" fill="#D9D9D9"/>
</mask>
<g mask="url(#mask0_2001_182)">
<path d="M935 187C849.666 322 791.4 606.6 1241 665" stroke="#FFB700"/>
<path d="M2093 301.251C1958 215.917 1673.4 157.651 1615 607.251" stroke="#FFB700"/>
<path d="M1208 814C1405.5 814 1584.71 821 1584.71 368" stroke="#FFB700"/>
<g clip-path="url(#clip0_2001_182)">
<path d="M882.143 466.465L882.605 468C882.687 468.271 882.969 468.449 883.268 468.359C883.537 468.278 883.713 467.995 883.622 467.694L883.368 466.851C883.332 466.731 883.365 466.623 883.436 466.536C883.508 466.449 883.628 466.413 883.726 466.415L885.373 466.576C885.511 466.6 885.599 466.672 885.644 466.822L886.107 468.358C886.188 468.628 886.47 468.806 886.769 468.716C887.038 468.635 887.214 468.352 887.123 468.051L886.87 467.208C886.833 467.089 886.866 466.98 886.938 466.893C887.01 466.806 887.129 466.77 887.228 466.772L889.96 467.065C890 467.086 890.029 467.077 890.068 467.098C890.068 467.098 890.108 467.119 890.116 467.148C890.126 467.179 890.156 467.17 890.165 467.199C890.204 467.221 890.223 467.281 890.231 467.31L891.327 470.953C891.572 471.765 892.299 472.663 893.076 473.183C893.358 473.361 893.733 473.412 894.062 473.313C894.391 473.214 894.674 472.965 894.811 472.661C895.201 471.788 895.282 470.648 895.037 469.836L893.94 466.194C893.931 466.163 893.913 466.103 893.935 466.065C893.925 466.034 893.956 466.025 893.947 465.996C893.938 465.965 893.968 465.956 893.959 465.927C893.98 465.887 894.001 465.849 894.031 465.84L896.147 464.087C896.228 464.029 896.347 463.993 896.456 464.027C896.564 464.06 896.651 464.133 896.687 464.252L896.941 465.095C897.022 465.366 897.304 465.544 897.603 465.453C897.872 465.372 898.048 465.09 897.958 464.789L897.495 463.254C897.459 463.134 897.513 462.986 897.585 462.899L898.869 461.855C898.95 461.798 899.069 461.762 899.177 461.796C899.285 461.829 899.372 461.901 899.408 462.021L899.662 462.864C899.744 463.134 900.026 463.312 900.325 463.222C900.444 463.186 900.576 463.081 900.638 462.964C900.58 462.881 900.595 462.713 900.558 462.593L900.096 461.057C900.06 460.938 900.113 460.789 900.185 460.702L902.644 458.682L902.164 457.087L893.064 462.092L893.034 462.101L893.004 462.11L892.973 462.119L892.914 462.137C892.883 462.147 892.883 462.147 892.845 462.125C892.814 462.134 892.805 462.103 892.776 462.112C892.746 462.121 892.736 462.091 892.736 462.091C892.727 462.06 892.697 462.069 892.688 462.04C892.679 462.009 892.648 462.019 892.639 461.989L892.63 461.959L892.621 461.928L892.612 461.897L892.24 460.663C891.896 459.519 891.039 457.545 889.893 455.691C889.827 455.58 889.821 455.45 889.884 455.333L891.587 452.751L891.252 451.638L888.822 453.65C888.691 453.755 888.492 453.749 888.358 453.625C888.205 453.442 888.06 453.288 887.887 453.144C887.852 453.352 887.816 453.559 887.79 453.796C887.776 453.965 887.614 454.079 887.417 454.073L884.281 453.738L884.616 454.851L887.493 456.056C887.61 456.12 887.706 456.222 887.683 456.361C887.751 458.539 888.128 460.658 888.473 461.802L888.845 463.036L888.854 463.067L888.863 463.097L888.872 463.128C888.881 463.158 888.881 463.158 888.86 463.197C888.869 463.227 888.839 463.237 888.848 463.266L888.826 463.306C888.796 463.315 888.805 463.345 888.776 463.354C888.746 463.363 888.746 463.363 888.726 463.403L888.666 463.421L888.636 463.43L888.605 463.439L888.575 463.448L878.226 464.297L878.707 465.892L881.872 466.218C882.011 466.242 882.107 466.345 882.143 466.465L882.143 466.465Z" fill="#FFB700"/>
</g>
</g>
<defs>
<clipPath id="clip0_2001_182">
<rect width="25" height="22" fill="white" transform="translate(905.758 470.545) rotate(163.238)"/>
</clipPath>
</defs>
</svg>
