<svg width="14" height="14" viewBox="0 0 14 14" fill="none" xmlns="http://www.w3.org/2000/svg">
<path d="M12.9362 10.1894V11.9958C12.9368 12.1635 12.9024 12.3295 12.8351 12.4832C12.7678 12.6369 12.669 12.7748 12.5452 12.8882C12.4214 13.0015 12.2752 13.0878 12.116 13.1416C11.9569 13.1953 11.7882 13.2153 11.6208 13.2002C9.7642 12.9988 7.98078 12.3657 6.41387 11.3515C4.95605 10.427 3.72008 9.19348 2.79373 7.73856C1.77404 6.16764 1.13947 4.37909 0.941421 2.51782C0.926343 2.3513 0.946172 2.18347 0.999645 2.02502C1.05312 1.86657 1.13906 1.72097 1.25201 1.59749C1.36495 1.474 1.50242 1.37534 1.65567 1.30779C1.80891 1.24023 1.97457 1.20526 2.1421 1.20511H3.95217C4.24498 1.20223 4.52885 1.30571 4.75087 1.49627C4.97289 1.68683 5.1179 1.95145 5.15888 2.24082C5.23528 2.81894 5.37697 3.38657 5.58123 3.9329C5.66241 4.14842 5.67998 4.38266 5.63186 4.60785C5.58374 4.83303 5.47194 5.03974 5.30972 5.20346L4.54346 5.9682C5.40237 7.47574 6.65307 8.72396 8.1636 9.58117L8.92986 8.81643C9.09391 8.65453 9.30102 8.54295 9.52665 8.49493C9.75229 8.4469 9.98699 8.46444 10.2029 8.54545C10.7504 8.74931 11.3191 8.89072 11.8984 8.96697C12.1915 9.00823 12.4591 9.15557 12.6505 9.38095C12.8418 9.60633 12.9435 9.89404 12.9362 10.1894Z" stroke="#FFB700" stroke-linecap="round" stroke-linejoin="round"/>
</svg>
