<svg width="0" height="0">
	<symbol xmlns="http://www.w3.org/2000/svg" id="arrow1" viewBox="0 0 4 4">
		<path d="M2 3.5L0.267949 0.5L3.73205 0.5L2 3.5Z"/>
	</symbol>

	<symbol xmlns="http://www.w3.org/2000/svg" id="arrow2" viewBox="0 0 97 8">
		<path d="M0.646446 3.64646C0.451187 3.84172 0.451187 4.1583 0.646446 4.35356L3.82843 7.53554C4.02369 7.7308 4.34027 7.7308 4.53554 7.53554C4.7308 7.34028 4.7308 7.0237 4.53554 6.82844L1.70711 4.00001L4.53554 1.17158C4.7308 0.976319 4.7308 0.659736 4.53554 0.464474C4.34027 0.269212 4.02369 0.269212 3.82843 0.464474L0.646446 3.64646ZM97 3.5L1 3.50001L1 4.50001L97 4.5L97 3.5Z"/>
	</symbol>

	<symbol xmlns="http://www.w3.org/2000/svg" id="arrow3" viewBox="0 0 30 16">
		<path d="M0.292893 7.29289C-0.0976314 7.68341 -0.0976315 8.31658 0.292892 8.7071L6.65685 15.0711C7.04738 15.4616 7.68054 15.4616 8.07107 15.0711C8.46159 14.6805 8.46159 14.0474 8.07107 13.6569L2.41421 8L8.07107 2.34314C8.46159 1.95262 8.46159 1.31945 8.07107 0.92893C7.68054 0.538406 7.04738 0.538406 6.65686 0.92893L0.292893 7.29289ZM30 7L1 7L1 9L30 9L30 7Z"/>
	</symbol>
</svg>